Coordinates
version=1
nRows=14
nColumns=40
inDegrees=yes

Units are S.I. units (second, meters, Newtons, ...)
If the header above contains a line with 'inDegrees', this indicates whether rotational values are in degrees (yes) or radians (no).

endheader
time	pelvis_tilt	pelvis_list	pelvis_rotation	pelvis_tx	pelvis_ty	pelvis_tz	hip_flexion_r	hip_adduction_r	hip_rotation_r	knee_angle_r	knee_angle_r_beta	ankle_angle_r	subtalar_angle_r	mtp_angle_r	hip_flexion_l	hip_adduction_l	hip_rotation_l	knee_angle_l	knee_angle_l_beta	ankle_angle_l	subtalar_angle_l	mtp_angle_l	lumbar_extension	lumbar_bending	lumbar_rotation	arm_flex_r	arm_add_r	arm_rot_r	elbow_flex_r	pro_sup_r	wrist_flex_r	wrist_dev_r	arm_flex_l	arm_add_l	arm_rot_l	elbow_flex_l	pro_sup_l	wrist_flex_l	wrist_dev_l
      0.58000000	     -1.32817465	     11.61496546	    -89.92657693	      0.25652114	      0.91620045	      0.04272328	    -12.62378646	      6.48162550	     -3.74098015	      1.80718752	      0.03154137	      6.87455414	      0.00000000	      0.00000000	     41.72140564	     -0.63484554	      0.58215200	      4.91168813	      0.08572513	      6.38695225	      0.00000000	      0.00000000	      3.33550539	     -0.10616363	      2.14003602	      0.00000000	      0.00000000	      0.00000000	      0.00000000	      0.00000000	      0.00000000	      0.00000000	      0.00000000	      0.00000000	      0.00000000	      0.00000000	      0.00000000	      0.00000000	      0.00000000
      0.59000000	     -1.37076621	     11.75708195	    -89.93305051	      0.25713219	      0.91159561	      0.06578805	    -13.55837662	      6.37552189	     -3.92189959	      2.60585160	      0.04548069	      6.41402501	      0.00000000	      0.00000000	     42.35247019	     -0.51495136	      1.01618654	      5.43498363	      0.09485836	      6.47521175	      0.00000000	      0.00000000	      3.66648192	     -0.11730521	      2.08355428	      0.00000000	      0.00000000	      0.00000000	      0.00000000	      0.00000000	      0.00000000	      0.00000000	      0.00000000	      0.00000000	      0.00000000	      0.00000000	      0.00000000	      0.00000000	      0.00000000
      0.60000000	     -1.34799422	     11.86794930	    -89.93772335	      0.25782610	      0.90750821	      0.08897696	    -14.18044908	      6.13335494	     -4.50296641	      3.96733007	      0.06924297	      5.55820123	      0.00000000	      0.00000000	     43.06414413	     -0.34748675	      1.10437282	      6.95569712	      0.12139982	      6.39905653	      0.00000000	      0.00000000	      3.94151245	     -0.18664411	      1.95650425	      0.00000000	      0.00000000	      0.00000000	      0.00000000	      0.00000000	      0.00000000	      0.00000000	      0.00000000	      0.00000000	      0.00000000	      0.00000000	      0.00000000	      0.00000000	      0.00000000
      0.61000000	     -1.24132610	     12.03330331	    -89.94138948	      0.25863983	      0.90387418	      0.11241992	    -14.47097515	      5.74056682	     -5.10617726	      5.77200143	      0.10074043	      4.36331876	      0.00000000	      0.00000000	     43.86470023	     -0.12319055	      0.76893003	      9.15530551	      0.15979023	      5.70026574	      0.00000000	      0.00000000	      4.33218070	     -0.33472628	      1.85363284	      0.00000000	      0.00000000	      0.00000000	      0.00000000	      0.00000000	      0.00000000	      0.00000000	      0.00000000	      0.00000000	      0.00000000	      0.00000000	      0.00000000	      0.00000000	      0.00000000
      0.62000000	     -1.08505798	     12.16377363	    -89.94396570	      0.25945323	      0.90089997	      0.13604890	    -14.52349537	      5.24258852	     -5.72812150	      7.96643160	      0.13904046	      2.72412937	      0.00000000	      0.00000000	     44.59740074	      0.11774970	      0.43586205	     11.77042190	      0.20543262	      4.35379412	      0.00000000	      0.00000000	      4.69996717	     -0.54902061	      1.73343088	      0.00000000	      0.00000000	      0.00000000	      0.00000000	      0.00000000	      0.00000000	      0.00000000	      0.00000000	      0.00000000	      0.00000000	      0.00000000	      0.00000000	      0.00000000	      0.00000000
      0.63000000	     -0.85246146	     12.39836333	    -89.94548222	      0.26031047	      0.89845916	      0.15977512	    -14.10415938	      4.58793574	     -6.50031345	     10.67462542	      0.18630736	      0.50535859	      0.00000000	      0.00000000	     45.37614920	      0.41597919	      0.20121401	     14.59049874	      0.25465224	      2.38781250	      0.00000000	      0.00000000	      5.21774101	     -0.85634844	      1.60735729	      0.00000000	      0.00000000	      0.00000000	      0.00000000	      0.00000000	      0.00000000	      0.00000000	      0.00000000	      0.00000000	      0.00000000	      0.00000000	      0.00000000	      0.00000000	      0.00000000
      0.64000000	     -0.50591114	     12.36542581	    -89.94625543	      0.26124483	      0.89716163	      0.18363523	    -13.66401876	      3.75325528	     -7.25401136	     13.75474474	      0.24006558	     -2.32728524	      0.00000000	      0.00000000	     45.73602455	      0.82192822	      0.12411387	     17.38749912	      0.30346911	     -0.03058408	      0.00000000	      0.00000000	      5.42754955	     -1.27953787	      1.47484574	      0.00000000	      0.00000000	      0.00000000	      0.00000000	      0.00000000	      0.00000000	      0.00000000	      0.00000000	      0.00000000	      0.00000000	      0.00000000	      0.00000000	      0.00000000	      0.00000000
      0.65000000	     -0.09282266	     12.15482486	    -89.94611187	      0.26223310	      0.89688938	      0.20747612	    -13.04949174	      2.77438458	     -8.01378485	     17.28973972	      0.30176288	     -5.64324743	      0.00000000	      0.00000000	     45.80050269	      1.30767490	      0.23301308	     20.16545815	      0.35195364	     -2.42358199	      0.00000000	      0.00000000	      5.42454435	     -1.77501695	      1.34268483	      0.00000000	      0.00000000	      0.00000000	      0.00000000	      0.00000000	      0.00000000	      0.00000000	      0.00000000	      0.00000000	      0.00000000	      0.00000000	      0.00000000	      0.00000000	      0.00000000
      0.66000000	      0.48174264	     11.92807437	    -89.94545626	      0.26338153	      0.89748416	      0.23115501	    -12.04251076	      1.55124862	     -8.74812770	     21.33168763	      0.37230818	     -9.51278456	      0.00000000	      0.00000000	     45.61040352	      1.99924093	      0.49873679	     22.62238803	      0.39483516	     -4.50730222	      0.00000000	      0.00000000	      5.39909102	     -2.40434963	      1.16235816	      0.00000000	      0.00000000	      0.00000000	      0.00000000	      0.00000000	      0.00000000	      0.00000000	      0.00000000	      0.00000000	      0.00000000	      0.00000000	      0.00000000	      0.00000000	      0.00000000
      0.67000000	      1.11850701	     11.53172742	    -89.94406374	      0.26457681	      0.89905023	      0.25456740	    -10.85746377	      0.22142545	     -9.29937663	     25.75625788	      0.44953150	    -13.50253001	      0.00000000	      0.00000000	     45.09692733	      2.75811665	      0.70717336	     24.95967009	      0.43562842	     -5.76708490	      0.00000000	      0.00000000	      5.14770780	     -3.09856749	      0.98306450	      0.00000000	      0.00000000	      0.00000000	      0.00000000	      0.00000000	      0.00000000	      0.00000000	      0.00000000	      0.00000000	      0.00000000	      0.00000000	      0.00000000	      0.00000000	      0.00000000
      0.68000000	      1.80822178	     11.05358105	    -89.94227258	      0.26579389	      0.90141550	      0.27759503	     -9.41134895	     -1.16795028	     -9.60470656	     30.49424228	      0.53222493	    -17.31565326	      0.00000000	      0.00000000	     44.28402800	      3.57985361	      0.85222391	     27.01704921	      0.47153646	     -6.18485092	      0.00000000	      0.00000000	      4.76468433	     -3.82822861	      0.79887441	      0.00000000	      0.00000000	      0.00000000	      0.00000000	      0.00000000	      0.00000000	      0.00000000	      0.00000000	      0.00000000	      0.00000000	      0.00000000	      0.00000000	      0.00000000	      0.00000000
      0.69000000	      2.53392282	     10.56111535	    -89.93997738	      0.26704516	      0.90443745	      0.30012927	     -7.66322802	     -2.56644935	     -9.64388266	     35.42171045	      0.61822547	    -20.61788826	      0.00000000	      0.00000000	     43.17696462	      4.46904658	      0.99651295	     28.63761996	      0.49982076	     -5.83634436	      0.00000000	      0.00000000	      4.32028121	     -4.56790572	      0.56725819	      0.00000000	      0.00000000	      0.00000000	      0.00000000	      0.00000000	      0.00000000	      0.00000000	      0.00000000	      0.00000000	      0.00000000	      0.00000000	      0.00000000	      0.00000000	      0.00000000
      0.70000000	      3.22262042	     10.05821736	    -89.93762791	      0.26821070	      0.90802568	      0.32214884	     -5.69844669	     -3.85723830	     -9.47085781	     40.30511489	      0.70345696	    -23.05286178	     -0.00000000	      0.00000000	     41.83728872	      5.29449980	      0.95095629	     29.89884317	      0.52183326	     -4.93858239	     -0.00000000	     -0.00000000	      3.81946804	     -5.24351786	      0.37873521	     -0.00000000	      0.00000000	      0.00000000	      0.00000000	      0.00000000	     -0.00000000	     -0.00000000	      0.00000000	     -0.00000000	      0.00000000	      0.00000000	      0.00000000	      0.00000000	     -0.00000000
      0.71000000	      3.87438404	      9.63628725	    -89.93499812	      0.26941350	      0.91203980	      0.34359833	     -3.42148049	     -5.04197444	     -9.12635706	     45.08227362	      0.78683411	    -24.40943326	      0.00000000	      0.00000000	     40.27384892	      6.14832656	      1.05929496	     30.61666251	      0.53436157	     -3.63300198	      0.00000000	      0.00000000	      3.37804405	     -5.85249862	      0.10476829	      0.00000000	      0.00000000	      0.00000000	      0.00000000	      0.00000000	      0.00000000	      0.00000000	      0.00000000	      0.00000000	      0.00000000	      0.00000000	      0.00000000	      0.00000000	      0.00000000
